<svg width="107" height="107" viewBox="0 0 107 107" fill="none" xmlns="http://www.w3.org/2000/svg">
<path d="M7.89124 86.7681V82.3097H99.1087V86.7681H7.89124ZM20.5797 77.8514C18.5258 77.8514 16.8124 77.1633 15.4392 75.7872C14.066 74.4111 13.378 72.6976 13.375 70.6467V27.0933C13.375 25.0425 14.0631 23.329 15.4392 21.9528C16.8153 20.5767 18.5273 19.8901 20.5752 19.8931H86.4248C88.4756 19.8931 90.1876 20.5797 91.5608 21.9528C92.934 23.326 93.622 25.0395 93.625 27.0933V70.6512C93.625 72.702 92.9369 74.414 91.5608 75.7872C90.1847 77.1604 88.4712 77.8484 86.4203 77.8514H20.5797ZM20.5797 73.3931H86.4248C87.1084 73.3931 87.737 73.1063 88.3107 72.5326C88.8843 71.959 89.1696 71.3304 89.1667 70.6467V27.0933C89.1667 26.4097 88.8813 25.781 88.3107 25.2074C87.737 24.6338 87.1069 24.347 86.4203 24.347H20.5797C19.8931 24.347 19.263 24.6338 18.6893 25.2074C18.1187 25.7781 17.8333 26.4067 17.8333 27.0933V70.6512C17.8333 71.3348 18.1187 71.962 18.6893 72.5326C19.26 73.1033 19.8886 73.3901 20.5752 73.3931" fill="black"/>
<path d="M48.0178 32.8908L47.8307 33.5907L47.4953 34.8421L44.7786 34.1155L44.5162 35.0898L42.436 34.5334L42.0593 35.9354L44.1417 36.4945L43.9183 37.3231L46.6353 38.0496L45.6827 41.6047L42.9657 40.8782L42.7083 41.8332L40.6282 41.2767L40.2514 42.6812L42.3315 43.2377L42.1056 44.0858L44.8222 44.8124L43.8479 48.4431L41.1335 47.7165L40.9026 48.5816L38.8201 48.0226L38.4434 49.4248L40.5258 49.9837L40.2731 50.9242L42.9875 51.6508L42.0544 55.1306L39.34 54.404L39.1165 55.2399L37.034 54.6809L36.6598 56.0831L38.7399 56.6395L38.4799 57.6139L41.1943 58.3406L40.8467 59.6382L40.6597 60.3404L41.3618 60.5276L61.179 65.8372L61.8812 66.0244L62.0684 65.3221L62.4159 64.027L65.123 64.7512L65.3829 63.7791L67.4849 64.3429L67.8616 62.9407L65.7596 62.3769L65.9831 61.541L63.2762 60.8169L64.2094 57.337L66.9163 58.0612L67.169 57.1207L69.2711 57.6845L69.6453 56.2824L67.5434 55.7187L67.7767 54.8511L65.0695 54.1269L66.0415 50.4988L68.7487 51.223L68.9745 50.3773L71.0764 50.9411L71.4532 49.5365L69.3513 48.9727L69.6063 48.0154L66.9018 47.2912L67.8544 43.7359L70.5589 44.4602L70.7801 43.634L72.8843 44.1977L73.2611 42.7931L71.1566 42.2294L71.4191 41.2501L68.7145 40.5258L69.0498 39.2768L69.2392 38.5746L68.5371 38.3849L48.7199 33.0777L48.0177 32.8907L48.0178 32.8908ZM49.0433 34.6695L67.4605 39.6024L60.8534 64.2459L42.4384 59.3127L49.0433 34.6695ZM64.0196 40.1856L58.5934 60.4379L44.9607 56.7831L44.5841 58.1874L58.9215 62.0296L59.6214 62.2167L59.8108 61.5146L65.4243 40.5625L64.0196 40.1859L64.0196 40.1856Z" fill="black"/>
</svg>
