<svg width="93" height="93" viewBox="0 0 93 93" fill="none" xmlns="http://www.w3.org/2000/svg">
<path d="M17.9955 46.2676C17.812 46.3394 17.6541 46.4645 17.5423 46.6268C17.4304 46.7891 17.3696 46.9811 17.3677 47.1782C17.3677 47.5734 17.6274 47.9454 17.9955 48.0849L29.5701 52.3087L53.4169 39.9978C53.5429 39.9393 53.6855 39.9267 53.8199 39.962C53.9543 39.9974 54.0722 40.0786 54.1531 40.1916C54.229 40.3078 54.262 40.4468 54.2464 40.5847C54.2309 40.7226 54.1677 40.8508 54.0679 40.9472L36.952 56.0326L56.0015 69.8198C56.2611 70.0058 56.6099 70.0523 56.9082 69.9438C57.0577 69.8881 57.191 69.7963 57.2965 69.6767C57.4019 69.557 57.4762 69.4132 57.5127 69.2579L67.0375 29.2021C67.0786 29.0307 67.0721 28.8514 67.0189 28.6834C66.9656 28.5155 66.8676 28.3652 66.7352 28.2488C66.6029 28.1324 66.4413 28.0542 66.2679 28.0228C66.0945 27.9914 65.9157 28.0079 65.751 28.0706L17.9955 46.2676Z" stroke="white" stroke-linecap="round" stroke-linejoin="round"/>
<path d="M5.8125 46.5C5.8125 57.291 10.0992 67.64 17.7296 75.2704C25.36 82.9008 35.709 87.1875 46.5 87.1875C57.291 87.1875 67.64 82.9008 75.2704 75.2704C82.9008 67.64 87.1875 57.291 87.1875 46.5C87.1875 35.709 82.9008 25.36 75.2704 17.7296C67.64 10.0992 57.291 5.8125 46.5 5.8125C35.709 5.8125 25.36 10.0992 17.7296 17.7296C10.0992 25.36 5.8125 35.709 5.8125 46.5Z" stroke="white" stroke-linejoin="round"/>
</svg>
